<?xml version="1.0" encoding="UTF-8"?>
<!DOCTYPE svg PUBLIC "-//W3C//DTD SVG 1.1//EN" "http://www.w3.org/Graphics/SVG/1.1/DTD/svg11.dtd">
<svg xmlns="http://www.w3.org/2000/svg" version="1.1" width="1325px" height="202px" style="shape-rendering:geometricPrecision; text-rendering:geometricPrecision; image-rendering:optimizeQuality; fill-rule:evenodd; clip-rule:evenodd" xmlns:xlink="http://www.w3.org/1999/xlink">
<g><path style="opacity:1" fill="#fefefe" d="M -0.5,-0.5 C 441.167,-0.5 882.833,-0.5 1324.5,-0.5C 1324.5,66.8333 1324.5,134.167 1324.5,201.5C 882.833,201.5 441.167,201.5 -0.5,201.5C -0.5,134.167 -0.5,66.8333 -0.5,-0.5 Z"/></g>
<g><path style="opacity:1" fill="#15fcfc" d="M 511.5,25.5 C 476.096,30.069 455.596,50.069 450,85.5C 447.32,108.129 452.32,128.796 465,147.5C 475.556,159.691 488.723,167.024 504.5,169.5C 464.258,169.432 441.091,149.432 435,109.5C 431.063,81.6393 439.23,58.1393 459.5,39C 475.151,27.588 492.485,23.088 511.5,25.5 Z"/></g>
<g><path style="opacity:1" fill="#020202" d="M 511.5,25.5 C 512.167,25.5 512.833,25.5 513.5,25.5C 541.544,27.8922 559.211,42.5589 566.5,69.5C 561.5,69.5 556.5,69.5 551.5,69.5C 547.367,57.7513 539.033,51.2513 526.5,50C 521.511,49.5007 516.511,49.3341 511.5,49.5C 478.935,48.7285 462.269,64.7285 461.5,97.5C 460.871,113.464 466.205,126.964 477.5,138C 486.84,144.418 497.174,146.918 508.5,145.5C 509.833,145.5 511.167,145.5 512.5,145.5C 536.341,147.931 551.008,137.598 556.5,114.5C 557.451,113.081 557.784,111.415 557.5,109.5C 546.167,109.5 534.833,109.5 523.5,109.5C 523.5,103.167 523.5,96.8333 523.5,90.5C 538.833,90.5 554.167,90.5 569.5,90.5C 569.5,116.167 569.5,141.833 569.5,167.5C 566.167,167.5 562.833,167.5 559.5,167.5C 559.559,161.622 558.725,155.955 557,150.5C 553.624,155.377 549.457,159.377 544.5,162.5C 544.167,162.5 543.833,162.5 543.5,162.5C 543.924,158.297 543.424,154.297 542,150.5C 533.504,161.661 522.338,167.995 508.5,169.5C 507.167,169.5 505.833,169.5 504.5,169.5C 488.723,167.024 475.556,159.691 465,147.5C 452.32,128.796 447.32,108.129 450,85.5C 455.596,50.069 476.096,30.069 511.5,25.5 Z"/></g>
<g><path style="opacity:1" fill="#fa1008" d="M 513.5,25.5 C 534.081,23.1924 552.248,28.8591 568,42.5C 575.161,50.1548 579.661,59.1548 581.5,69.5C 576.5,69.5 571.5,69.5 566.5,69.5C 559.211,42.5589 541.544,27.8922 513.5,25.5 Z"/></g>
<g><path style="opacity:1" fill="#11fdfd" d="M 74.5,27.5 C 57.1078,74.0086 40.1078,120.675 23.5,167.5C 18.5,167.5 13.5,167.5 8.5,167.5C 25.3637,120.909 42.0304,74.2426 58.5,27.5C 63.8333,27.5 69.1667,27.5 74.5,27.5 Z"/></g>
<g><path style="opacity:1" fill="#030202" d="M 74.5,27.5 C 79.8333,27.5 85.1667,27.5 90.5,27.5C 107.367,74.1025 124.034,120.769 140.5,167.5C 136.167,167.5 131.833,167.5 127.5,167.5C 124.304,157.079 120.804,146.745 117,136.5C 111.928,135.529 106.762,135.195 101.5,135.5C 88.5,135.5 75.5,135.5 62.5,135.5C 57.456,135.173 52.456,135.506 47.5,136.5C 43.6289,146.781 39.9622,157.114 36.5,167.5C 32.1667,167.5 27.8333,167.5 23.5,167.5C 40.1078,120.675 57.1078,74.0086 74.5,27.5 Z"/></g>
<g><path style="opacity:1" fill="#fc0804" d="M 90.5,27.5 C 95.9752,26.9193 101.142,27.5859 106,29.5C 122.806,75.4212 139.306,121.421 155.5,167.5C 150.5,167.5 145.5,167.5 140.5,167.5C 124.034,120.769 107.367,74.1025 90.5,27.5 Z"/></g>
<g><path style="opacity:1" fill="#00fefe" d="M 174.5,27.5 C 174.5,74.1667 174.5,120.833 174.5,167.5C 169.5,167.5 164.5,167.5 159.5,167.5C 159.5,120.833 159.5,74.1667 159.5,27.5C 164.5,27.5 169.5,27.5 174.5,27.5 Z"/></g>
<g><path style="opacity:1" fill="#010101" d="M 174.5,27.5 C 178.5,27.5 182.5,27.5 186.5,27.5C 207.748,58.995 228.748,90.6616 249.5,122.5C 249.56,123.043 249.893,123.376 250.5,123.5C 251.497,116.866 251.83,110.2 251.5,103.5C 256.191,109.536 260.525,115.869 264.5,122.5C 264.56,123.043 264.893,123.376 265.5,123.5C 266.5,91.5069 266.833,59.5069 266.5,27.5C 270.167,27.5 273.833,27.5 277.5,27.5C 277.5,74.1667 277.5,120.833 277.5,167.5C 273.5,167.5 269.5,167.5 265.5,167.5C 244.602,135.386 223.436,103.386 202,71.5C 201.5,78.4921 201.334,85.4921 201.5,92.5C 196.196,85.9145 191.362,78.9145 187,71.5C 186.5,103.498 186.333,135.498 186.5,167.5C 182.5,167.5 178.5,167.5 174.5,167.5C 174.5,120.833 174.5,74.1667 174.5,27.5 Z"/></g>
<g><path style="opacity:1" fill="#fa0201" d="M 186.5,27.5 C 191.511,27.3341 196.511,27.5007 201.5,28C 217.733,52.3188 234.066,76.4855 250.5,100.5C 250.5,100.833 250.5,101.167 250.5,101.5C 250.825,108.687 250.491,115.687 249.5,122.5C 228.748,90.6616 207.748,58.995 186.5,27.5 Z"/></g>
<g><path style="opacity:1" fill="#12fefe" d="M 265.5,27.5 C 265.832,59.3377 265.498,91.0044 264.5,122.5C 260.525,115.869 256.191,109.536 251.5,103.5C 251.672,102.508 251.338,101.842 250.5,101.5C 250.5,101.167 250.5,100.833 250.5,100.5C 250.5,76.1667 250.5,51.8333 250.5,27.5C 255.5,27.5 260.5,27.5 265.5,27.5 Z"/></g>
<g><path style="opacity:1" fill="#006161" d="M 265.5,27.5 C 265.833,27.5 266.167,27.5 266.5,27.5C 266.833,59.5069 266.5,91.5069 265.5,123.5C 264.893,123.376 264.56,123.043 264.5,122.5C 265.498,91.0044 265.832,59.3377 265.5,27.5 Z"/></g>
<g><path style="opacity:1" fill="#f80000" d="M 277.5,27.5 C 282.5,27.5 287.5,27.5 292.5,27.5C 292.5,74.1667 292.5,120.833 292.5,167.5C 287.5,167.5 282.5,167.5 277.5,167.5C 277.5,120.833 277.5,74.1667 277.5,27.5 Z"/></g>
<g><path style="opacity:1" fill="#11fdfd" d="M 361.5,27.5 C 344.636,74.0907 327.97,120.757 311.5,167.5C 306.156,167.666 300.823,167.499 295.5,167C 312.328,121.183 329.162,75.35 346,29.5C 350.858,27.5859 356.025,26.9193 361.5,27.5 Z"/></g>
<g><path style="opacity:1" fill="#030202" d="M 361.5,27.5 C 366.833,27.5 372.167,27.5 377.5,27.5C 394.892,74.0086 411.892,120.675 428.5,167.5C 424.167,167.5 419.833,167.5 415.5,167.5C 411.645,157.271 407.978,146.937 404.5,136.5C 399.544,135.506 394.544,135.173 389.5,135.5C 376.5,135.5 363.5,135.5 350.5,135.5C 345.167,135.5 339.833,135.5 334.5,135.5C 331.365,146.239 328.031,156.905 324.5,167.5C 320.167,167.5 315.833,167.5 311.5,167.5C 327.97,120.757 344.636,74.0907 361.5,27.5 Z"/></g>
<g><path style="opacity:1" fill="#fc0804" d="M 377.5,27.5 C 382.833,27.5 388.167,27.5 393.5,27.5C 409.762,73.9504 426.429,120.284 443.5,166.5C 438.544,167.494 433.544,167.827 428.5,167.5C 411.892,120.675 394.892,74.0086 377.5,27.5 Z"/></g>
<g><path style="opacity:1" fill="#06fffe" d="M 609.5,27.5 C 609.5,74.1667 609.5,120.833 609.5,167.5C 604.5,167.5 599.5,167.5 594.5,167.5C 594.5,120.833 594.5,74.1667 594.5,27.5C 599.5,27.5 604.5,27.5 609.5,27.5 Z"/></g>
<g><path style="opacity:1" fill="#143131" d="M 609.5,27.5 C 609.833,27.5 610.167,27.5 610.5,27.5C 610.5,73.8333 610.5,120.167 610.5,166.5C 634.672,166.169 658.672,166.502 682.5,167.5C 658.167,167.5 633.833,167.5 609.5,167.5C 609.5,120.833 609.5,74.1667 609.5,27.5 Z"/></g>
<g><path style="opacity:1" fill="#010000" d="M 610.5,27.5 C 614.167,27.5 617.833,27.5 621.5,27.5C 621.5,67.1667 621.5,106.833 621.5,146.5C 626.5,146.5 631.5,146.5 636.5,146.5C 652.167,146.5 667.833,146.5 683.5,146.5C 683.5,153.5 683.5,160.5 683.5,167.5C 683.167,167.5 682.833,167.5 682.5,167.5C 658.672,166.502 634.672,166.169 610.5,166.5C 610.5,120.167 610.5,73.8333 610.5,27.5 Z"/></g>
<g><path style="opacity:1" fill="#ce0000" d="M 621.5,27.5 C 621.833,27.5 622.167,27.5 622.5,27.5C 622.5,66.8333 622.5,106.167 622.5,145.5C 627.167,145.5 631.833,145.5 636.5,145.5C 636.5,145.833 636.5,146.167 636.5,146.5C 631.5,146.5 626.5,146.5 621.5,146.5C 621.5,106.833 621.5,67.1667 621.5,27.5 Z"/></g>
<g><path style="opacity:1" fill="#fe0000" d="M 622.5,27.5 C 627.167,27.5 631.833,27.5 636.5,27.5C 636.5,66.8333 636.5,106.167 636.5,145.5C 631.833,145.5 627.167,145.5 622.5,145.5C 622.5,106.167 622.5,66.8333 622.5,27.5 Z"/></g>
<g><path style="opacity:1" fill="#f3cdcd" d="M 636.5,27.5 C 637.499,66.6631 637.832,105.996 637.5,145.5C 658.007,145.17 678.34,145.503 698.5,146.5C 693.5,146.5 688.5,146.5 683.5,146.5C 667.833,146.5 652.167,146.5 636.5,146.5C 636.5,146.167 636.5,145.833 636.5,145.5C 636.5,106.167 636.5,66.8333 636.5,27.5 Z"/></g>
<g><path style="opacity:1" fill="#0cfdfd" d="M 690.5,27.5 C 705.987,57.1399 721.487,86.8065 737,116.5C 737.5,133.497 737.667,150.497 737.5,167.5C 732.5,167.5 727.5,167.5 722.5,167.5C 722.667,150.83 722.5,134.163 722,117.5C 706.5,87.8333 691,58.1667 675.5,28.5C 680.456,27.5059 685.456,27.1725 690.5,27.5 Z"/></g>
<g><path style="opacity:1" fill="#030202" d="M 690.5,27.5 C 695.833,27.5 701.167,27.5 706.5,27.5C 715.845,48.6885 725.678,69.6885 736,90.5C 738.498,85.5046 740.998,80.5046 743.5,75.5C 745.954,80.4081 748.454,85.4081 751,90.5C 761.381,69.7391 771.214,48.7391 780.5,27.5C 785.833,27.5 791.167,27.5 796.5,27.5C 781.013,57.1399 765.513,86.8065 750,116.5C 749.5,133.497 749.333,150.497 749.5,167.5C 745.5,167.5 741.5,167.5 737.5,167.5C 737.667,150.497 737.5,133.497 737,116.5C 721.487,86.8065 705.987,57.1399 690.5,27.5 Z"/></g>
<g><path style="opacity:1" fill="#fb0503" d="M 706.5,27.5 C 711.544,27.1725 716.544,27.5059 721.5,28.5C 728.608,43.7142 735.941,58.7142 743.5,73.5C 743.5,74.1667 743.5,74.8333 743.5,75.5C 740.998,80.5046 738.498,85.5046 736,90.5C 725.678,69.6885 715.845,48.6885 706.5,27.5 Z"/></g>
<g><path style="opacity:1" fill="#0efbfb" d="M 780.5,27.5 C 771.214,48.7391 761.381,69.7391 751,90.5C 748.454,85.4081 745.954,80.4081 743.5,75.5C 743.5,74.8333 743.5,74.1667 743.5,73.5C 751.059,58.7142 758.392,43.7142 765.5,28.5C 770.456,27.5059 775.456,27.1725 780.5,27.5 Z"/></g>
<g><path style="opacity:1" fill="#fd0503" d="M 796.5,27.5 C 801.511,27.3341 806.511,27.5007 811.5,28C 795.617,57.5975 780.117,87.4309 765,117.5C 764.5,134.163 764.333,150.83 764.5,167.5C 759.5,167.5 754.5,167.5 749.5,167.5C 749.333,150.497 749.5,133.497 750,116.5C 765.513,86.8065 781.013,57.1399 796.5,27.5 Z"/></g>
<g><path style="opacity:1" fill="#00fbfb" d="M 828.5,27.5 C 828.5,74.1667 828.5,120.833 828.5,167.5C 823.5,167.5 818.5,167.5 813.5,167.5C 813.5,120.833 813.5,74.1667 813.5,27.5C 818.5,27.5 823.5,27.5 828.5,27.5 Z"/></g>
<g><path style="opacity:1" fill="#040101" d="M 828.5,27.5 C 844.833,27.5 861.167,27.5 877.5,27.5C 907.509,34.3705 919.676,53.0371 914,83.5C 910.76,96.4063 902.927,105.24 890.5,110C 885.094,111.705 879.761,113.205 874.5,114.5C 868.167,114.5 861.833,114.5 855.5,114.5C 855.167,114.5 854.833,114.5 854.5,114.5C 849.833,114.5 845.167,114.5 840.5,114.5C 840.5,131.833 840.5,149.167 840.5,166.5C 840.5,166.833 840.5,167.167 840.5,167.5C 836.5,167.5 832.5,167.5 828.5,167.5C 828.5,120.833 828.5,74.1667 828.5,27.5 Z"/></g>
<g><path style="opacity:1" fill="#fa0804" d="M 877.5,27.5 C 918.61,27.4241 935.444,47.4241 928,87.5C 921.705,101.122 911.205,109.622 896.5,113C 889.214,114.186 881.881,114.686 874.5,114.5C 879.761,113.205 885.094,111.705 890.5,110C 902.927,105.24 910.76,96.4063 914,83.5C 919.676,53.0371 907.509,34.3705 877.5,27.5 Z"/></g>
<g><path style="opacity:1" fill="#21f8f8" d="M 951.5,27.5 C 951.5,74.1667 951.5,120.833 951.5,167.5C 946.167,167.5 940.833,167.5 935.5,167.5C 935.5,120.833 935.5,74.1667 935.5,27.5C 940.833,27.5 946.167,27.5 951.5,27.5 Z"/></g>
<g><path style="opacity:1" fill="#0a0302" d="M 951.5,27.5 C 955.5,27.5 959.5,27.5 963.5,27.5C 963.5,46.5 963.5,65.5 963.5,84.5C 968.5,84.5 973.5,84.5 978.5,84.5C 993.833,84.5 1009.17,84.5 1024.5,84.5C 1029.5,84.5 1034.5,84.5 1039.5,84.5C 1039.5,65.5 1039.5,46.5 1039.5,27.5C 1043.5,27.5 1047.5,27.5 1051.5,27.5C 1051.5,73.8333 1051.5,120.167 1051.5,166.5C 1051.5,166.833 1051.5,167.167 1051.5,167.5C 1047.5,167.5 1043.5,167.5 1039.5,167.5C 1039.5,147.167 1039.5,126.833 1039.5,106.5C 1034.5,106.5 1029.5,106.5 1024.5,106.5C 1009.17,106.5 993.833,106.5 978.5,106.5C 973.5,106.5 968.5,106.5 963.5,106.5C 963.5,126.833 963.5,147.167 963.5,167.5C 959.5,167.5 955.5,167.5 951.5,167.5C 951.5,120.833 951.5,74.1667 951.5,27.5 Z"/></g>
<g><path style="opacity:1" fill="#ff140b" d="M 963.5,27.5 C 968.5,27.5 973.5,27.5 978.5,27.5C 978.5,46.5 978.5,65.5 978.5,84.5C 973.5,84.5 968.5,84.5 963.5,84.5C 963.5,65.5 963.5,46.5 963.5,27.5 Z"/></g>
<g><path style="opacity:1" fill="#00fbfb" d="M 1039.5,27.5 C 1039.5,46.5 1039.5,65.5 1039.5,84.5C 1034.5,84.5 1029.5,84.5 1024.5,84.5C 1024.5,65.5 1024.5,46.5 1024.5,27.5C 1029.5,27.5 1034.5,27.5 1039.5,27.5 Z"/></g>
<g><path style="opacity:1" fill="#fe0000" d="M 1051.5,27.5 C 1056.17,27.5 1060.83,27.5 1065.5,27.5C 1065.5,73.8333 1065.5,120.167 1065.5,166.5C 1060.83,166.5 1056.17,166.5 1051.5,166.5C 1051.5,120.167 1051.5,73.8333 1051.5,27.5 Z"/></g>
<g><path style="opacity:1" fill="#ff3737" d="M 1065.5,27.5 C 1066.5,73.997 1066.83,120.664 1066.5,167.5C 1061.5,167.5 1056.5,167.5 1051.5,167.5C 1051.5,167.167 1051.5,166.833 1051.5,166.5C 1056.17,166.5 1060.83,166.5 1065.5,166.5C 1065.5,120.167 1065.5,73.8333 1065.5,27.5 Z"/></g>
<g><path style="opacity:1" fill="#11fdfd" d="M 1182.5,27.5 C 1165.5,74.1618 1148.5,120.828 1131.5,167.5C 1126.46,167.827 1121.46,167.494 1116.5,166.5C 1133.23,120.462 1150.07,74.4616 1167,28.5C 1172.07,27.5286 1177.24,27.1953 1182.5,27.5 Z"/></g>
<g><path style="opacity:1" fill="#030202" d="M 1182.5,27.5 C 1187.83,27.5 1193.17,27.5 1198.5,27.5C 1215.5,74.1715 1232.5,120.838 1249.5,167.5C 1244.83,167.5 1240.17,167.5 1235.5,167.5C 1231.97,156.905 1228.64,146.239 1225.5,135.5C 1220.17,135.5 1214.83,135.5 1209.5,135.5C 1196.5,135.5 1183.5,135.5 1170.5,135.5C 1165.46,135.173 1160.46,135.506 1155.5,136.5C 1152.02,146.937 1148.35,157.271 1144.5,167.5C 1140.17,167.5 1135.83,167.5 1131.5,167.5C 1148.5,120.828 1165.5,74.1618 1182.5,27.5 Z"/></g>
<g><path style="opacity:1" fill="#fc0904" d="M 1198.5,27.5 C 1203.76,27.1953 1208.93,27.5286 1214,28.5C 1230.54,74.6151 1247.37,120.615 1264.5,166.5C 1259.54,167.494 1254.54,167.827 1249.5,167.5C 1232.5,120.838 1215.5,74.1715 1198.5,27.5 Z"/></g>
<g><path style="opacity:1" fill="#06fffe" d="M 1282.5,27.5 C 1282.5,74.1667 1282.5,120.833 1282.5,167.5C 1277.5,167.5 1272.5,167.5 1267.5,167.5C 1267.5,120.833 1267.5,74.1667 1267.5,27.5C 1272.5,27.5 1277.5,27.5 1282.5,27.5 Z"/></g>
<g><path style="opacity:1" fill="#052f2f" d="M 1282.5,27.5 C 1282.83,27.5 1283.17,27.5 1283.5,27.5C 1283.5,73.8333 1283.5,120.167 1283.5,166.5C 1287.17,166.5 1290.83,166.5 1294.5,166.5C 1294.5,166.833 1294.5,167.167 1294.5,167.5C 1290.5,167.5 1286.5,167.5 1282.5,167.5C 1282.5,120.833 1282.5,74.1667 1282.5,27.5 Z"/></g>
<g><path style="opacity:1" fill="#000000" d="M 1283.5,27.5 C 1287.17,27.5 1290.83,27.5 1294.5,27.5C 1294.5,73.8333 1294.5,120.167 1294.5,166.5C 1290.83,166.5 1287.17,166.5 1283.5,166.5C 1283.5,120.167 1283.5,73.8333 1283.5,27.5 Z"/></g>
<g><path style="opacity:1" fill="#d30805" d="M 1294.5,27.5 C 1294.83,27.5 1295.17,27.5 1295.5,27.5C 1295.5,73.8333 1295.5,120.167 1295.5,166.5C 1300.17,166.5 1304.83,166.5 1309.5,166.5C 1304.69,167.487 1299.69,167.821 1294.5,167.5C 1294.5,167.167 1294.5,166.833 1294.5,166.5C 1294.5,120.167 1294.5,73.8333 1294.5,27.5 Z"/></g>
<g><path style="opacity:1" fill="#fe0000" d="M 1295.5,27.5 C 1300.17,27.5 1304.83,27.5 1309.5,27.5C 1309.5,73.8333 1309.5,120.167 1309.5,166.5C 1304.83,166.5 1300.17,166.5 1295.5,166.5C 1295.5,120.167 1295.5,73.8333 1295.5,27.5 Z"/></g>
<g><path style="opacity:1" fill="#ff0704" d="M 855.5,49.5 C 855.5,63.8333 855.5,78.1667 855.5,92.5C 850.5,92.5 845.5,92.5 840.5,92.5C 840.5,78.1667 840.5,63.8333 840.5,49.5C 845.5,49.5 850.5,49.5 855.5,49.5 Z"/></g>
<g><path style="opacity:1" fill="#fefffe" d="M 855.5,49.5 C 860.5,49.5 865.5,49.5 870.5,49.5C 885.971,53.6085 891.471,63.6085 887,79.5C 883.724,87.3779 877.891,91.7113 869.5,92.5C 864.833,92.5 860.167,92.5 855.5,92.5C 855.5,78.1667 855.5,63.8333 855.5,49.5 Z"/></g>
<g><path style="opacity:1" fill="#13fbfb" d="M 870.5,49.5 C 876.509,49.3338 882.509,49.5005 888.5,50C 898.893,53.1112 903.893,60.1112 903.5,71C 903.7,82.7957 898.034,89.7957 886.5,92C 880.843,92.4994 875.176,92.6661 869.5,92.5C 877.891,91.7113 883.724,87.3779 887,79.5C 891.471,63.6085 885.971,53.6085 870.5,49.5 Z"/></g>
<g><path style="opacity:1" fill="#f90b05" d="M 511.5,49.5 C 511.5,49.8333 511.5,50.1667 511.5,50.5C 494.153,53.3438 483.32,63.3438 479,80.5C 477.464,90.7821 477.13,101.115 478,111.5C 481.056,129.381 491.222,140.714 508.5,145.5C 497.174,146.918 486.84,144.418 477.5,138C 466.205,126.964 460.871,113.464 461.5,97.5C 462.269,64.7285 478.935,48.7285 511.5,49.5 Z"/></g>
<g><path style="opacity:1" fill="#16f7f7" d="M 511.5,50.5 C 511.5,50.1667 511.5,49.8333 511.5,49.5C 516.511,49.3341 521.511,49.5007 526.5,50C 539.033,51.2513 547.367,57.7513 551.5,69.5C 546.489,69.6659 541.489,69.4993 536.5,69C 531.852,57.9955 523.519,51.8288 511.5,50.5 Z"/></g>
<g><path style="opacity:1" fill="#f80201" d="M 81.5,80.5 C 77.8293,91.845 74.1627,103.178 70.5,114.5C 65.5,114.5 60.5,114.5 55.5,114.5C 61.3089,95.5724 67.8089,76.9057 75,58.5C 78.055,65.5993 80.2217,72.9327 81.5,80.5 Z"/></g>
<g><path style="opacity:1" fill="#0cf8f8" d="M 93.5,114.5 C 89.8406,103.177 86.1739,91.8438 82.5,80.5C 84.1507,72.8679 86.6507,65.5345 90,58.5C 96.3081,77.092 102.808,95.592 109.5,114C 104.177,114.499 98.8437,114.666 93.5,114.5 Z"/></g>
<g><path style="opacity:1" fill="#f80201" d="M 369.5,78.5 C 369.5,79.1667 369.5,79.8333 369.5,80.5C 365.5,91.8333 361.5,103.167 357.5,114.5C 352.456,114.827 347.456,114.494 342.5,113.5C 349.296,95.2802 355.796,76.9469 362,58.5C 364.792,65.0406 367.292,71.7072 369.5,78.5 Z"/></g>
<g><path style="opacity:1" fill="#0bf8f8" d="M 381.5,114.5 C 377.674,103.017 373.674,91.6832 369.5,80.5C 369.5,79.8333 369.5,79.1667 369.5,78.5C 372.069,71.9709 374.569,65.3042 377,58.5C 384.191,76.9057 390.691,95.5724 396.5,114.5C 391.5,114.5 386.5,114.5 381.5,114.5 Z"/></g>
<g><path style="opacity:1" fill="#f90302" d="M 1190.5,78.5 C 1190.5,79.1667 1190.5,79.8333 1190.5,80.5C 1185.93,91.532 1181.93,102.865 1178.5,114.5C 1173.5,114.5 1168.5,114.5 1163.5,114.5C 1169.3,95.6055 1175.8,76.9389 1183,58.5C 1185.43,65.3042 1187.93,71.9709 1190.5,78.5 Z"/></g>
<g><path style="opacity:1" fill="#0cf8f8" d="M 1202.5,114.5 C 1198.3,103.247 1194.3,91.9138 1190.5,80.5C 1190.5,79.8333 1190.5,79.1667 1190.5,78.5C 1192.7,71.7456 1195.2,65.0789 1198,58.5C 1204.6,76.7955 1211.1,95.1288 1217.5,113.5C 1212.54,114.494 1207.54,114.827 1202.5,114.5 Z"/></g>
<g><path style="opacity:1" fill="#fe0101" d="M 201.5,92.5 C 201.5,93.1667 201.5,93.8333 201.5,94.5C 201.5,118.833 201.5,143.167 201.5,167.5C 196.5,167.5 191.5,167.5 186.5,167.5C 186.333,135.498 186.5,103.498 187,71.5C 191.362,78.9145 196.196,85.9145 201.5,92.5 Z"/></g>
<g><path style="opacity:1" fill="#0dfbfb" d="M 265.5,167.5 C 260.238,167.805 255.072,167.471 250,166.5C 234.058,142.262 217.891,118.262 201.5,94.5C 201.5,93.8333 201.5,93.1667 201.5,92.5C 201.334,85.4921 201.5,78.4921 202,71.5C 223.436,103.386 244.602,135.386 265.5,167.5 Z"/></g>
<g><path style="opacity:1" fill="#fefbfb" d="M 81.5,80.5 C 81.8333,80.5 82.1667,80.5 82.5,80.5C 86.1739,91.8438 89.8406,103.177 93.5,114.5C 85.8333,114.5 78.1667,114.5 70.5,114.5C 74.1627,103.178 77.8293,91.845 81.5,80.5 Z"/></g>
<g><path style="opacity:1" fill="#fdfbfb" d="M 369.5,80.5 C 373.674,91.6832 377.674,103.017 381.5,114.5C 373.5,114.5 365.5,114.5 357.5,114.5C 361.5,103.167 365.5,91.8333 369.5,80.5 Z"/></g>
<g><path style="opacity:1" fill="#fefcfc" d="M 1190.5,80.5 C 1194.3,91.9138 1198.3,103.247 1202.5,114.5C 1194.5,114.5 1186.5,114.5 1178.5,114.5C 1181.93,102.865 1185.93,91.532 1190.5,80.5 Z"/></g>
<g><path style="opacity:1" fill="#23fffe" d="M 522.5,89.5 C 522.5,96.5 522.5,103.5 522.5,110.5C 517.5,110.5 512.5,110.5 507.5,110.5C 507.5,103.5 507.5,96.5 507.5,89.5C 512.5,89.5 517.5,89.5 522.5,89.5 Z"/></g>
<g><path style="opacity:1" fill="#ff0503" d="M 569.5,89.5 C 574.5,89.5 579.5,89.5 584.5,89.5C 584.5,115.5 584.5,141.5 584.5,167.5C 579.5,167.5 574.5,167.5 569.5,167.5C 569.5,141.833 569.5,116.167 569.5,90.5C 569.5,90.1667 569.5,89.8333 569.5,89.5 Z"/></g>
<g><path style="opacity:1" fill="#600303" d="M 250.5,101.5 C 251.338,101.842 251.672,102.508 251.5,103.5C 251.83,110.2 251.497,116.866 250.5,123.5C 249.893,123.376 249.56,123.043 249.5,122.5C 250.491,115.687 250.825,108.687 250.5,101.5 Z"/></g>
<g><path style="opacity:1" fill="#fe150c" d="M 978.5,106.5 C 978.5,126.833 978.5,147.167 978.5,167.5C 973.5,167.5 968.5,167.5 963.5,167.5C 963.5,147.167 963.5,126.833 963.5,106.5C 968.5,106.5 973.5,106.5 978.5,106.5 Z"/></g>
<g><path style="opacity:1" fill="#02fffe" d="M 1024.5,107.5 C 1029.17,107.5 1033.83,107.5 1038.5,107.5C 1038.5,127.5 1038.5,147.5 1038.5,167.5C 1033.83,167.5 1029.17,167.5 1024.5,167.5C 1024.5,147.5 1024.5,127.5 1024.5,107.5 Z"/></g>
<g><path style="opacity:1" fill="#01c8c8" d="M 1024.5,107.5 C 1024.5,107.167 1024.5,106.833 1024.5,106.5C 1029.5,106.5 1034.5,106.5 1039.5,106.5C 1039.5,126.833 1039.5,147.167 1039.5,167.5C 1039.17,167.5 1038.83,167.5 1038.5,167.5C 1038.5,147.5 1038.5,127.5 1038.5,107.5C 1033.83,107.5 1029.17,107.5 1024.5,107.5 Z"/></g>
<g><path style="opacity:1" fill="#506766" d="M 522.5,89.5 C 538.167,89.5 553.833,89.5 569.5,89.5C 569.5,89.8333 569.5,90.1667 569.5,90.5C 554.167,90.5 538.833,90.5 523.5,90.5C 523.5,96.8333 523.5,103.167 523.5,109.5C 534.833,109.5 546.167,109.5 557.5,109.5C 557.784,111.415 557.451,113.081 556.5,114.5C 556.5,113.167 556.5,111.833 556.5,110.5C 551.5,110.5 546.5,110.5 541.5,110.5C 535.167,110.5 528.833,110.5 522.5,110.5C 522.5,103.5 522.5,96.5 522.5,89.5 Z"/></g>
<g><path style="opacity:1" fill="#14fcfc" d="M 541.5,110.5 C 546.5,110.5 551.5,110.5 556.5,110.5C 556.5,111.833 556.5,113.167 556.5,114.5C 551.008,137.598 536.341,147.931 512.5,145.5C 530.381,140.784 540.047,129.118 541.5,110.5 Z"/></g>
<g><path style="opacity:1" fill="#fe0000" d="M 854.5,114.5 C 854.5,131.833 854.5,149.167 854.5,166.5C 849.833,166.5 845.167,166.5 840.5,166.5C 840.5,149.167 840.5,131.833 840.5,114.5C 845.167,114.5 849.833,114.5 854.5,114.5 Z"/></g>
<g><path style="opacity:1" fill="#ff3737" d="M 854.5,114.5 C 854.833,114.5 855.167,114.5 855.5,114.5C 855.5,132.167 855.5,149.833 855.5,167.5C 850.5,167.5 845.5,167.5 840.5,167.5C 840.5,167.167 840.5,166.833 840.5,166.5C 845.167,166.5 849.833,166.5 854.5,166.5C 854.5,149.167 854.5,131.833 854.5,114.5 Z"/></g>
<g><path style="opacity:1" fill="#fb0805" d="M 62.5,135.5 C 58.9089,145.773 55.4089,156.106 52,166.5C 46.9283,167.471 41.7616,167.805 36.5,167.5C 39.9622,157.114 43.6289,146.781 47.5,136.5C 52.456,135.506 57.456,135.173 62.5,135.5 Z"/></g>
<g><path style="opacity:1" fill="#12fbfb" d="M 101.5,135.5 C 106.762,135.195 111.928,135.529 117,136.5C 120.804,146.745 124.304,157.079 127.5,167.5C 122.238,167.805 117.072,167.471 112,166.5C 108.486,156.146 104.986,145.812 101.5,135.5 Z"/></g>
<g><path style="opacity:1" fill="#fb0805" d="M 350.5,135.5 C 346.645,145.729 342.978,156.063 339.5,166.5C 334.544,167.494 329.544,167.827 324.5,167.5C 328.031,156.905 331.365,146.239 334.5,135.5C 339.833,135.5 345.167,135.5 350.5,135.5 Z"/></g>
<g><path style="opacity:1" fill="#12fbfb" d="M 389.5,135.5 C 394.544,135.173 399.544,135.506 404.5,136.5C 407.978,146.937 411.645,157.271 415.5,167.5C 410.167,167.5 404.833,167.5 399.5,167.5C 395.969,156.905 392.635,146.239 389.5,135.5 Z"/></g>
<g><path style="opacity:1" fill="#fb0704" d="M 1170.5,135.5 C 1166.96,146.123 1163.63,156.79 1160.5,167.5C 1155.17,167.5 1149.83,167.5 1144.5,167.5C 1148.35,157.271 1152.02,146.937 1155.5,136.5C 1160.46,135.506 1165.46,135.173 1170.5,135.5 Z"/></g>
<g><path style="opacity:1" fill="#11fbfb" d="M 1209.5,135.5 C 1214.83,135.5 1220.17,135.5 1225.5,135.5C 1228.64,146.239 1231.97,156.905 1235.5,167.5C 1230.46,167.827 1225.46,167.494 1220.5,166.5C 1216.63,156.214 1212.96,145.881 1209.5,135.5 Z"/></g>
<g><path style="opacity:1" fill="#ff170e" d="M 683.5,146.5 C 688.5,146.5 693.5,146.5 698.5,146.5C 698.5,153.5 698.5,160.5 698.5,167.5C 693.5,167.5 688.5,167.5 683.5,167.5C 683.5,160.5 683.5,153.5 683.5,146.5 Z"/></g>
<g><path style="opacity:1" fill="#f30704" d="M 543.5,162.5 C 539.706,165.383 535.373,167.216 530.5,168C 523.229,169.3 515.896,169.8 508.5,169.5C 522.338,167.995 533.504,161.661 542,150.5C 543.424,154.297 543.924,158.297 543.5,162.5 Z"/></g>
<g><path style="opacity:1" fill="#0bf4f4" d="M 559.5,167.5 C 554.5,167.5 549.5,167.5 544.5,167.5C 544.5,165.833 544.5,164.167 544.5,162.5C 549.457,159.377 553.624,155.377 557,150.5C 558.725,155.955 559.559,161.622 559.5,167.5 Z"/></g>
</svg>
