<?xml version="1.0" encoding="UTF-8"?>
<!DOCTYPE svg PUBLIC "-//W3C//DTD SVG 1.1//EN" "http://www.w3.org/Graphics/SVG/1.1/DTD/svg11.dtd">
<svg xmlns="http://www.w3.org/2000/svg" version="1.1" width="1325px" height="202px" style="shape-rendering:geometricPrecision; text-rendering:geometricPrecision; image-rendering:optimizeQuality; fill-rule:evenodd; clip-rule:evenodd" xmlns:xlink="http://www.w3.org/1999/xlink">
<g><path style="opacity:1" fill="#00fffe" d="M 508.5,25.5 C 480.047,29.4556 461.547,45.1222 453,72.5C 445.564,99.4634 449.564,124.463 465,147.5C 475.549,159.688 488.716,167.021 504.5,169.5C 467.038,170.023 444.205,152.023 436,115.5C 431.825,92.5423 435.825,71.209 448,51.5C 463.588,31.9507 483.755,23.2841 508.5,25.5 Z"/></g>
<g><path style="opacity:1" fill="#fe0000" d="M 515.5,25.5 C 541.162,23.0822 561.328,32.4156 576,53.5C 578.698,58.5577 580.532,63.891 581.5,69.5C 576.5,69.5 571.5,69.5 566.5,69.5C 559.495,43.509 542.495,28.8423 515.5,25.5 Z"/></g>
<g><path style="opacity:1" fill="#000000" d="M 508.5,25.5 C 510.833,25.5 513.167,25.5 515.5,25.5C 542.495,28.8423 559.495,43.509 566.5,69.5C 561.5,69.5 556.5,69.5 551.5,69.5C 548.244,59.7467 541.577,53.5801 531.5,51C 525.371,49.48 519.371,49.3133 513.5,50.5C 512.5,50.5 511.5,50.5 510.5,50.5C 489.844,47.5794 475.011,55.5794 466,74.5C 460,90.5 460,106.5 466,122.5C 474.974,140.241 489.474,147.908 509.5,145.5C 510.5,145.5 511.5,145.5 512.5,145.5C 537.84,147.824 552.84,136.491 557.5,111.5C 552.544,110.506 547.544,110.173 542.5,110.5C 536.167,110.5 529.833,110.5 523.5,110.5C 522.167,103.5 522.167,96.5 523.5,89.5C 538.833,89.5 554.167,89.5 569.5,89.5C 569.5,115.5 569.5,141.5 569.5,167.5C 566.167,167.5 562.833,167.5 559.5,167.5C 559.076,161.776 558.243,156.11 557,150.5C 553.624,155.377 549.457,159.377 544.5,162.5C 544.167,162.5 543.833,162.5 543.5,162.5C 543.656,158.418 543.156,154.418 542,150.5C 534.007,161.076 523.507,167.41 510.5,169.5C 508.5,169.5 506.5,169.5 504.5,169.5C 488.716,167.021 475.549,159.688 465,147.5C 449.564,124.463 445.564,99.4634 453,72.5C 461.547,45.1222 480.047,29.4556 508.5,25.5 Z"/></g>
<g><path style="opacity:1" fill="#00fffe" d="M 74.5,27.5 C 57.1078,74.0086 40.1078,120.675 23.5,167.5C 18.456,167.827 13.456,167.494 8.5,166.5C 25.2349,120.462 42.0683,74.4616 59,28.5C 64.0717,27.5286 69.2384,27.1953 74.5,27.5 Z"/></g>
<g><path style="opacity:1" fill="#000000" d="M 74.5,27.5 C 79.8333,27.5 85.1667,27.5 90.5,27.5C 107.367,74.1025 124.034,120.769 140.5,167.5C 136.167,167.5 131.833,167.5 127.5,167.5C 123.909,157.227 120.409,146.894 117,136.5C 111.928,135.529 106.762,135.195 101.5,135.5C 88.5,135.5 75.5,135.5 62.5,135.5C 57.456,135.173 52.456,135.506 47.5,136.5C 44.0216,146.937 40.3549,157.271 36.5,167.5C 32.1667,167.5 27.8333,167.5 23.5,167.5C 40.1078,120.675 57.1078,74.0086 74.5,27.5 Z M 82.5,80.5 C 86.3044,91.9138 90.3044,103.247 94.5,114.5C 86.5,114.5 78.5,114.5 70.5,114.5C 73.9283,102.877 77.9283,91.5438 82.5,80.5 Z"/></g>
<g><path style="opacity:1" fill="#fe0000" d="M 90.5,27.5 C 95.9752,26.9193 101.142,27.5859 106,29.5C 122.806,75.4212 139.306,121.421 155.5,167.5C 150.5,167.5 145.5,167.5 140.5,167.5C 124.034,120.769 107.367,74.1025 90.5,27.5 Z"/></g>
<g><path style="opacity:1" fill="#00fffe" d="M 174.5,27.5 C 174.5,74.1667 174.5,120.833 174.5,167.5C 169.5,167.5 164.5,167.5 159.5,167.5C 159.5,120.833 159.5,74.1667 159.5,27.5C 164.5,27.5 169.5,27.5 174.5,27.5 Z"/></g>
<g><path style="opacity:1" fill="#000000" d="M 174.5,27.5 C 178.5,27.5 182.5,27.5 186.5,27.5C 207.656,59.138 228.823,90.8047 250,122.5C 250.5,115.508 250.666,108.508 250.5,101.5C 255.311,108.434 260.144,115.434 265,122.5C 265.5,90.8351 265.667,59.1684 265.5,27.5C 269.5,27.5 273.5,27.5 277.5,27.5C 277.5,74.1667 277.5,120.833 277.5,167.5C 273.5,167.5 269.5,167.5 265.5,167.5C 244.582,135.4 223.415,103.4 202,71.5C 201.5,78.4921 201.334,85.4921 201.5,92.5C 196.196,85.9145 191.362,78.9145 187,71.5C 186.5,103.498 186.333,135.498 186.5,167.5C 182.5,167.5 178.5,167.5 174.5,167.5C 174.5,120.833 174.5,74.1667 174.5,27.5 Z"/></g>
<g><path style="opacity:1" fill="#fe0000" d="M 186.5,27.5 C 191.511,27.3341 196.511,27.5007 201.5,28C 217.733,52.3188 234.066,76.4855 250.5,100.5C 250.5,100.833 250.5,101.167 250.5,101.5C 250.666,108.508 250.5,115.508 250,122.5C 228.823,90.8047 207.656,59.138 186.5,27.5 Z"/></g>
<g><path style="opacity:1" fill="#00fffe" d="M 265.5,27.5 C 265.667,59.1684 265.5,90.8351 265,122.5C 260.144,115.434 255.311,108.434 250.5,101.5C 250.5,101.167 250.5,100.833 250.5,100.5C 250.5,76.1667 250.5,51.8333 250.5,27.5C 255.5,27.5 260.5,27.5 265.5,27.5 Z"/></g>
<g><path style="opacity:1" fill="#fe0000" d="M 277.5,27.5 C 282.5,27.5 287.5,27.5 292.5,27.5C 292.5,74.1667 292.5,120.833 292.5,167.5C 287.5,167.5 282.5,167.5 277.5,167.5C 277.5,120.833 277.5,74.1667 277.5,27.5 Z"/></g>
<g><path style="opacity:1" fill="#00fffe" d="M 361.5,27.5 C 344.636,74.0907 327.97,120.757 311.5,167.5C 306.5,167.5 301.5,167.5 296.5,167.5C 312.97,120.757 329.636,74.0907 346.5,27.5C 351.5,27.5 356.5,27.5 361.5,27.5 Z"/></g>
<g><path style="opacity:1" fill="#000000" d="M 361.5,27.5 C 366.833,27.5 372.167,27.5 377.5,27.5C 394.892,74.0086 411.892,120.675 428.5,167.5C 424.167,167.5 419.833,167.5 415.5,167.5C 411.436,156.976 407.77,146.309 404.5,135.5C 399.5,135.5 394.5,135.5 389.5,135.5C 376.5,135.5 363.5,135.5 350.5,135.5C 345.238,135.195 340.072,135.529 335,136.5C 331.196,146.745 327.696,157.079 324.5,167.5C 320.167,167.5 315.833,167.5 311.5,167.5C 327.97,120.757 344.636,74.0907 361.5,27.5 Z M 369.5,80.5 C 374.068,91.532 378.068,102.865 381.5,114.5C 373.5,114.5 365.5,114.5 357.5,114.5C 361.697,103.242 365.697,91.9089 369.5,80.5 Z"/></g>
<g><path style="opacity:1" fill="#fe0000" d="M 377.5,27.5 C 382.762,27.1953 387.928,27.5286 393,28.5C 409.932,74.4616 426.765,120.462 443.5,166.5C 438.544,167.494 433.544,167.827 428.5,167.5C 411.892,120.675 394.892,74.0086 377.5,27.5 Z"/></g>
<g><path style="opacity:1" fill="#00fffe" d="M 609.5,27.5 C 609.5,74.1667 609.5,120.833 609.5,167.5C 604.5,167.5 599.5,167.5 594.5,167.5C 594.5,120.833 594.5,74.1667 594.5,27.5C 599.5,27.5 604.5,27.5 609.5,27.5 Z"/></g>
<g><path style="opacity:1" fill="#000000" d="M 609.5,27.5 C 613.5,27.5 617.5,27.5 621.5,27.5C 621.5,67.1667 621.5,106.833 621.5,146.5C 626.5,146.5 631.5,146.5 636.5,146.5C 652.167,146.5 667.833,146.5 683.5,146.5C 683.795,153.588 683.462,160.588 682.5,167.5C 658.167,167.5 633.833,167.5 609.5,167.5C 609.5,120.833 609.5,74.1667 609.5,27.5 Z"/></g>
<g><path style="opacity:1" fill="#fe0000" d="M 621.5,27.5 C 626.5,27.5 631.5,27.5 636.5,27.5C 636.5,67.1667 636.5,106.833 636.5,146.5C 631.5,146.5 626.5,146.5 621.5,146.5C 621.5,106.833 621.5,67.1667 621.5,27.5 Z"/></g>
<g><path style="opacity:1" fill="#00fffe" d="M 690.5,27.5 C 706.242,57.3164 721.742,87.3164 737,117.5C 737.5,134.163 737.667,150.83 737.5,167.5C 732.5,167.5 727.5,167.5 722.5,167.5C 722.667,150.83 722.5,134.163 722,117.5C 706.883,87.4309 691.383,57.5975 675.5,28C 680.489,27.5007 685.489,27.3341 690.5,27.5 Z"/></g>
<g><path style="opacity:1" fill="#000000" d="M 690.5,27.5 C 695.833,27.5 701.167,27.5 706.5,27.5C 716.232,48.5181 726.065,69.5181 736,90.5C 738.498,85.5046 740.998,80.5046 743.5,75.5C 745.954,80.4081 748.454,85.4081 751,90.5C 761.375,69.75 771.208,48.75 780.5,27.5C 785.833,27.5 791.167,27.5 796.5,27.5C 780.758,57.3164 765.258,87.3164 750,117.5C 749.5,134.163 749.333,150.83 749.5,167.5C 745.5,167.5 741.5,167.5 737.5,167.5C 737.667,150.83 737.5,134.163 737,117.5C 721.742,87.3164 706.242,57.3164 690.5,27.5 Z"/></g>
<g><path style="opacity:1" fill="#fe0000" d="M 706.5,27.5 C 711.544,27.1725 716.544,27.5059 721.5,28.5C 728.847,43.8597 736.18,59.193 743.5,74.5C 743.5,74.8333 743.5,75.1667 743.5,75.5C 740.998,80.5046 738.498,85.5046 736,90.5C 726.065,69.5181 716.232,48.5181 706.5,27.5 Z"/></g>
<g><path style="opacity:1" fill="#00fffe" d="M 780.5,27.5 C 771.208,48.75 761.375,69.75 751,90.5C 748.454,85.4081 745.954,80.4081 743.5,75.5C 743.5,75.1667 743.5,74.8333 743.5,74.5C 751.331,59.501 758.664,44.1676 765.5,28.5C 770.456,27.5059 775.456,27.1725 780.5,27.5 Z"/></g>
<g><path style="opacity:1" fill="#fe0000" d="M 796.5,27.5 C 801.511,27.3341 806.511,27.5007 811.5,28C 795.617,57.5975 780.117,87.4309 765,117.5C 764.5,134.163 764.333,150.83 764.5,167.5C 759.5,167.5 754.5,167.5 749.5,167.5C 749.333,150.83 749.5,134.163 750,117.5C 765.258,87.3164 780.758,57.3164 796.5,27.5 Z"/></g>
<g><path style="opacity:1" fill="#00fffe" d="M 828.5,27.5 C 828.5,74.1667 828.5,120.833 828.5,167.5C 823.5,167.5 818.5,167.5 813.5,167.5C 813.5,120.833 813.5,74.1667 813.5,27.5C 818.5,27.5 823.5,27.5 828.5,27.5 Z"/></g>
<g><path style="opacity:1" fill="#000000" d="M 828.5,27.5 C 844.5,27.5 860.5,27.5 876.5,27.5C 907.504,34.0482 920.004,53.0482 914,84.5C 910.779,95.7186 903.945,103.885 893.5,109C 887.264,111.638 880.931,113.471 874.5,114.5C 868.167,114.5 861.833,114.5 855.5,114.5C 850.5,114.5 845.5,114.5 840.5,114.5C 840.5,132.167 840.5,149.833 840.5,167.5C 836.5,167.5 832.5,167.5 828.5,167.5C 828.5,120.833 828.5,74.1667 828.5,27.5 Z M 855.5,49.5 C 861.167,49.5 866.833,49.5 872.5,49.5C 886.907,54.9917 891.74,65.325 887,80.5C 883.952,87.3971 878.785,91.3971 871.5,92.5C 866.167,92.5 860.833,92.5 855.5,92.5C 855.5,78.1667 855.5,63.8333 855.5,49.5 Z"/></g>
<g><path style="opacity:1" fill="#fe0000" d="M 876.5,27.5 C 894.965,25.3741 910.465,31.0407 923,44.5C 930.944,58.0423 932.611,72.3756 928,87.5C 922.838,100.164 913.671,108.331 900.5,112C 891.952,114.003 883.285,114.837 874.5,114.5C 880.931,113.471 887.264,111.638 893.5,109C 903.945,103.885 910.779,95.7186 914,84.5C 920.004,53.0482 907.504,34.0482 876.5,27.5 Z"/></g>
<g><path style="opacity:1" fill="#00fffe" d="M 951.5,27.5 C 951.5,74.1667 951.5,120.833 951.5,167.5C 946.5,167.5 941.5,167.5 936.5,167.5C 936.5,120.833 936.5,74.1667 936.5,27.5C 941.5,27.5 946.5,27.5 951.5,27.5 Z"/></g>
<g><path style="opacity:1" fill="#000000" d="M 951.5,27.5 C 955.5,27.5 959.5,27.5 963.5,27.5C 963.5,46.5 963.5,65.5 963.5,84.5C 968.5,84.5 973.5,84.5 978.5,84.5C 993.833,84.5 1009.17,84.5 1024.5,84.5C 1029.5,84.5 1034.5,84.5 1039.5,84.5C 1039.5,65.5 1039.5,46.5 1039.5,27.5C 1043.5,27.5 1047.5,27.5 1051.5,27.5C 1051.5,74.1667 1051.5,120.833 1051.5,167.5C 1047.5,167.5 1043.5,167.5 1039.5,167.5C 1039.5,147.167 1039.5,126.833 1039.5,106.5C 1034.5,106.5 1029.5,106.5 1024.5,106.5C 1009.17,106.5 993.833,106.5 978.5,106.5C 973.5,106.5 968.5,106.5 963.5,106.5C 963.821,126.909 963.488,147.242 962.5,167.5C 958.833,167.5 955.167,167.5 951.5,167.5C 951.5,120.833 951.5,74.1667 951.5,27.5 Z"/></g>
<g><path style="opacity:1" fill="#fe0000" d="M 963.5,27.5 C 968.5,27.5 973.5,27.5 978.5,27.5C 978.5,46.5 978.5,65.5 978.5,84.5C 973.5,84.5 968.5,84.5 963.5,84.5C 963.5,65.5 963.5,46.5 963.5,27.5 Z"/></g>
<g><path style="opacity:1" fill="#00fffe" d="M 1039.5,27.5 C 1039.5,46.5 1039.5,65.5 1039.5,84.5C 1034.5,84.5 1029.5,84.5 1024.5,84.5C 1024.5,65.5 1024.5,46.5 1024.5,27.5C 1029.5,27.5 1034.5,27.5 1039.5,27.5 Z"/></g>
<g><path style="opacity:1" fill="#fe0000" d="M 1051.5,27.5 C 1056.5,27.5 1061.5,27.5 1066.5,27.5C 1066.5,74.1667 1066.5,120.833 1066.5,167.5C 1061.5,167.5 1056.5,167.5 1051.5,167.5C 1051.5,120.833 1051.5,74.1667 1051.5,27.5 Z"/></g>
<g><path style="opacity:1" fill="#00fffe" d="M 1182.5,27.5 C 1165.5,74.1667 1148.5,120.833 1131.5,167.5C 1126.46,167.827 1121.46,167.494 1116.5,166.5C 1133.5,120.5 1150.5,74.5 1167.5,28.5C 1172.46,27.5059 1177.46,27.1725 1182.5,27.5 Z"/></g>
<g><path style="opacity:1" fill="#000000" d="M 1182.5,27.5 C 1187.83,27.5 1193.17,27.5 1198.5,27.5C 1215.5,74.1715 1232.5,120.838 1249.5,167.5C 1244.83,167.5 1240.17,167.5 1235.5,167.5C 1232.3,157.079 1228.8,146.745 1225,136.5C 1219.93,135.529 1214.76,135.195 1209.5,135.5C 1196.5,135.5 1183.5,135.5 1170.5,135.5C 1165.5,135.5 1160.5,135.5 1155.5,135.5C 1152.23,146.309 1148.56,156.976 1144.5,167.5C 1140.17,167.5 1135.83,167.5 1131.5,167.5C 1148.5,120.833 1165.5,74.1667 1182.5,27.5 Z M 1190.5,80.5 C 1194.7,91.7578 1198.7,103.091 1202.5,114.5C 1194.5,114.5 1186.5,114.5 1178.5,114.5C 1181.99,102.886 1185.99,91.5529 1190.5,80.5 Z"/></g>
<g><path style="opacity:1" fill="#fe0000" d="M 1198.5,27.5 C 1203.54,27.1725 1208.54,27.5059 1213.5,28.5C 1230.6,74.6449 1247.6,120.812 1264.5,167C 1259.51,167.499 1254.51,167.666 1249.5,167.5C 1232.5,120.838 1215.5,74.1715 1198.5,27.5 Z"/></g>
<g><path style="opacity:1" fill="#00fffe" d="M 1282.5,27.5 C 1282.5,74.1667 1282.5,120.833 1282.5,167.5C 1277.5,167.5 1272.5,167.5 1267.5,167.5C 1267.5,120.833 1267.5,74.1667 1267.5,27.5C 1272.5,27.5 1277.5,27.5 1282.5,27.5 Z"/></g>
<g><path style="opacity:1" fill="#000000" d="M 1282.5,27.5 C 1286.5,27.5 1290.5,27.5 1294.5,27.5C 1294.5,74.1667 1294.5,120.833 1294.5,167.5C 1290.5,167.5 1286.5,167.5 1282.5,167.5C 1282.5,120.833 1282.5,74.1667 1282.5,27.5 Z"/></g>
<g><path style="opacity:1" fill="#fe0000" d="M 1294.5,27.5 C 1299.5,27.5 1304.5,27.5 1309.5,27.5C 1309.5,74.1667 1309.5,120.833 1309.5,167.5C 1304.5,167.5 1299.5,167.5 1294.5,167.5C 1294.5,120.833 1294.5,74.1667 1294.5,27.5 Z"/></g>
<g><path style="opacity:1" fill="#fe0000" d="M 510.5,50.5 C 493.698,53.8007 483.198,63.8007 479,80.5C 475.667,92.5 475.667,104.5 479,116.5C 483.557,132.227 493.724,141.894 509.5,145.5C 489.474,147.908 474.974,140.241 466,122.5C 460,106.5 460,90.5 466,74.5C 475.011,55.5794 489.844,47.5794 510.5,50.5 Z"/></g>
<g><path style="opacity:1" fill="#00fffe" d="M 513.5,50.5 C 519.371,49.3133 525.371,49.48 531.5,51C 541.577,53.5801 548.244,59.7467 551.5,69.5C 546.456,69.8275 541.456,69.4941 536.5,68.5C 532.354,58.0228 524.687,52.0228 513.5,50.5 Z"/></g>
<g><path style="opacity:1" fill="#fe0000" d="M 855.5,49.5 C 855.5,63.8333 855.5,78.1667 855.5,92.5C 850.5,92.5 845.5,92.5 840.5,92.5C 840.5,78.1667 840.5,63.8333 840.5,49.5C 845.5,49.5 850.5,49.5 855.5,49.5 Z"/></g>
<g><path style="opacity:1" fill="#00fffe" d="M 872.5,49.5 C 896.325,46.821 906.159,57.1543 902,80.5C 899.112,87.3859 893.945,91.2193 886.5,92C 881.511,92.4993 876.511,92.6659 871.5,92.5C 878.785,91.3971 883.952,87.3971 887,80.5C 891.74,65.325 886.907,54.9917 872.5,49.5 Z"/></g>
<g><path style="opacity:1" fill="#fe0000" d="M 369.5,79.5 C 369.5,79.8333 369.5,80.1667 369.5,80.5C 365.697,91.9089 361.697,103.242 357.5,114.5C 352.489,114.666 347.489,114.499 342.5,114C 349.192,95.592 355.692,77.092 362,58.5C 365,65.3337 367.5,72.3337 369.5,79.5 Z"/></g>
<g><path style="opacity:1" fill="#00fffe" d="M 381.5,114.5 C 378.068,102.865 374.068,91.532 369.5,80.5C 369.5,80.1667 369.5,79.8333 369.5,79.5C 372.265,72.7122 374.765,65.7122 377,58.5C 383.599,76.7955 390.099,95.1288 396.5,113.5C 391.544,114.494 386.544,114.827 381.5,114.5 Z"/></g>
<g><path style="opacity:1" fill="#fe0000" d="M 1190.5,78.5 C 1190.5,79.1667 1190.5,79.8333 1190.5,80.5C 1185.99,91.5529 1181.99,102.886 1178.5,114.5C 1173.46,114.827 1168.46,114.494 1163.5,113.5C 1169.9,95.1288 1176.4,76.7955 1183,58.5C 1185.28,65.3644 1187.78,72.0311 1190.5,78.5 Z"/></g>
<g><path style="opacity:1" fill="#00fffe" d="M 1202.5,114.5 C 1198.7,103.091 1194.7,91.7578 1190.5,80.5C 1190.5,79.8333 1190.5,79.1667 1190.5,78.5C 1193.09,71.9007 1195.59,65.234 1198,58.5C 1204.31,77.092 1210.81,95.592 1217.5,114C 1212.51,114.499 1207.51,114.666 1202.5,114.5 Z"/></g>
<g><path style="opacity:1" fill="#fe0000" d="M 82.5,79.5 C 82.5,79.8333 82.5,80.1667 82.5,80.5C 77.9283,91.5438 73.9283,102.877 70.5,114.5C 65.5,114.5 60.5,114.5 55.5,114.5C 61.1124,95.828 67.6124,77.4947 75,59.5C 77.4307,66.3042 79.9307,72.9709 82.5,79.5 Z"/></g>
<g><path style="opacity:1" fill="#00fffe" d="M 94.5,114.5 C 90.3044,103.247 86.3044,91.9138 82.5,80.5C 82.5,80.1667 82.5,79.8333 82.5,79.5C 84.3151,72.5521 86.8151,65.8855 90,59.5C 96.5051,77.6833 103.005,95.85 109.5,114C 104.511,114.499 99.5111,114.666 94.5,114.5 Z"/></g>
<g><path style="opacity:1" fill="#fe0000" d="M 201.5,92.5 C 201.5,93.1667 201.5,93.8333 201.5,94.5C 201.5,118.833 201.5,143.167 201.5,167.5C 196.5,167.5 191.5,167.5 186.5,167.5C 186.333,135.498 186.5,103.498 187,71.5C 191.362,78.9145 196.196,85.9145 201.5,92.5 Z"/></g>
<g><path style="opacity:1" fill="#00fffe" d="M 265.5,167.5 C 260.456,167.827 255.456,167.494 250.5,166.5C 234.144,142.434 217.81,118.434 201.5,94.5C 201.5,93.8333 201.5,93.1667 201.5,92.5C 201.334,85.4921 201.5,78.4921 202,71.5C 223.415,103.4 244.582,135.4 265.5,167.5 Z"/></g>
<g><path style="opacity:1" fill="#00fffe" d="M 523.5,89.5 C 522.167,96.5 522.167,103.5 523.5,110.5C 518.489,110.666 513.489,110.499 508.5,110C 507.167,103.333 507.167,96.6667 508.5,90C 513.489,89.5007 518.489,89.3341 523.5,89.5 Z"/></g>
<g><path style="opacity:1" fill="#fe0000" d="M 569.5,89.5 C 574.5,89.5 579.5,89.5 584.5,89.5C 584.5,115.5 584.5,141.5 584.5,167.5C 579.5,167.5 574.5,167.5 569.5,167.5C 569.5,141.5 569.5,115.5 569.5,89.5 Z"/></g>
<g><path style="opacity:1" fill="#fe0000" d="M 978.5,106.5 C 978.667,126.503 978.5,146.503 978,166.5C 972.928,167.471 967.762,167.805 962.5,167.5C 963.488,147.242 963.821,126.909 963.5,106.5C 968.5,106.5 973.5,106.5 978.5,106.5 Z"/></g>
<g><path style="opacity:1" fill="#00fffe" d="M 1024.5,106.5 C 1029.5,106.5 1034.5,106.5 1039.5,106.5C 1039.5,126.833 1039.5,147.167 1039.5,167.5C 1034.5,167.5 1029.5,167.5 1024.5,167.5C 1024.5,147.167 1024.5,126.833 1024.5,106.5 Z"/></g>
<g><path style="opacity:1" fill="#00fffe" d="M 542.5,110.5 C 547.544,110.173 552.544,110.506 557.5,111.5C 552.84,136.491 537.84,147.824 512.5,145.5C 530.261,140.724 540.261,129.057 542.5,110.5 Z"/></g>
<g><path style="opacity:1" fill="#fe0000" d="M 855.5,114.5 C 855.5,132.167 855.5,149.833 855.5,167.5C 850.5,167.5 845.5,167.5 840.5,167.5C 840.5,149.833 840.5,132.167 840.5,114.5C 845.5,114.5 850.5,114.5 855.5,114.5 Z"/></g>
<g><path style="opacity:1" fill="#fe0000" d="M 62.5,135.5 C 59.3039,145.921 55.8039,156.255 52,166.5C 46.9283,167.471 41.7616,167.805 36.5,167.5C 40.3549,157.271 44.0216,146.937 47.5,136.5C 52.456,135.506 57.456,135.173 62.5,135.5 Z"/></g>
<g><path style="opacity:1" fill="#00fffe" d="M 101.5,135.5 C 106.762,135.195 111.928,135.529 117,136.5C 120.409,146.894 123.909,157.227 127.5,167.5C 122.456,167.827 117.456,167.494 112.5,166.5C 108.627,156.214 104.961,145.881 101.5,135.5 Z"/></g>
<g><path style="opacity:1" fill="#fe0000" d="M 350.5,135.5 C 346.645,145.729 342.978,156.063 339.5,166.5C 334.544,167.494 329.544,167.827 324.5,167.5C 327.696,157.079 331.196,146.745 335,136.5C 340.072,135.529 345.238,135.195 350.5,135.5 Z"/></g>
<g><path style="opacity:1" fill="#00fffe" d="M 389.5,135.5 C 394.5,135.5 399.5,135.5 404.5,135.5C 407.77,146.309 411.436,156.976 415.5,167.5C 410.238,167.805 405.072,167.471 400,166.5C 396.192,156.243 392.692,145.91 389.5,135.5 Z"/></g>
<g><path style="opacity:1" fill="#fe0000" d="M 1170.5,135.5 C 1167.31,145.91 1163.81,156.243 1160,166.5C 1154.93,167.471 1149.76,167.805 1144.5,167.5C 1148.56,156.976 1152.23,146.309 1155.5,135.5C 1160.5,135.5 1165.5,135.5 1170.5,135.5 Z"/></g>
<g><path style="opacity:1" fill="#00fffe" d="M 1209.5,135.5 C 1214.76,135.195 1219.93,135.529 1225,136.5C 1228.8,146.745 1232.3,157.079 1235.5,167.5C 1230.46,167.827 1225.46,167.494 1220.5,166.5C 1217.02,156.063 1213.35,145.729 1209.5,135.5 Z"/></g>
<g><path style="opacity:1" fill="#fe0000" d="M 683.5,146.5 C 688.5,146.5 693.5,146.5 698.5,146.5C 698.666,153.175 698.5,159.842 698,166.5C 692.928,167.471 687.762,167.805 682.5,167.5C 683.462,160.588 683.795,153.588 683.5,146.5 Z"/></g>
<g><path style="opacity:1" fill="#fe0000" d="M 543.5,162.5 C 539.95,165.105 535.95,166.939 531.5,168C 524.555,169.23 517.555,169.73 510.5,169.5C 523.507,167.41 534.007,161.076 542,150.5C 543.156,154.418 543.656,158.418 543.5,162.5 Z"/></g>
<g><path style="opacity:1" fill="#00fffe" d="M 559.5,167.5 C 554.5,167.5 549.5,167.5 544.5,167.5C 544.5,165.833 544.5,164.167 544.5,162.5C 549.457,159.377 553.624,155.377 557,150.5C 558.243,156.11 559.076,161.776 559.5,167.5 Z"/></g>
</svg>
